# xmcd
#
# Track frame offsets:
#	150
#	12153
#	25590
#	38116
#	52811
#	65129
#	79011
#	98449
#	114091
#	126872
#	152649
#	165212
#
# Disc length: 2370 seconds
#
# Revision: 0
# Processed by: cddbd v1.5.2PL0 Copyright (c) Steve Scherf et al.
# Submitted via: audiograbber 1.83.01
#
DISCID=7b09400c
DTITLE=Tauern Echo - Die besten Kirschen
DYEAR=2011
DGENRE=volkstümlich
TTITLE0=Die besten Kirschen
TTITLE1=Roulette der Liebe
TTITLE2=Dazwisch´n do is nix 
TTITLE3=Heut´ brennt die Huett´n
TTITLE4=A Bussal zum Aufsteh´n
TTITLE5=Sommer Nr. 17 
TTITLE6=Tauern Echo Polkamedley
TTITLE7=Super sueß, super sexy, super heiß
TTITLE8=Jungbauernkalender 
TTITLE9=Tauern Echo Schlagermedley
TTITLE10=Do haut´s da ´s Heu owa
TTITLE11=Einmal Musikant, immer Musikant
EXTD=
EXTT0=
EXTT1=
EXTT2=
EXTT3=
EXTT4=
EXTT5=
EXTT6=
EXTT7=
EXTT8=
EXTT9=
EXTT10=
EXTT11=
PLAYORDER=
